# xmcd CD database file
#
# Track frame offsets:
#	150
#	20253
#	41726
#	64704
#	84988
#	107380
#	128732
#	151246
#
# Disc length: 2314 seconds
#
# Revision: 0
# Processed by: cddbd v1.5.1PL0 Copyright (c) Steve Scherf et al.
# Submitted via: CDex 1.51
#
DISCID=54090808
DTITLE=Orquesta GuayacáN - Edición Limitada
DYEAR=1900
DGENRE=Salsa
TTITLE0=Torero
TTITLE1=Amor Traicionero
TTITLE2=Penas Penas
TTITLE3=Si Tú No EstáS
TTITLE4=Y Me Dejaste
TTITLE5=Recordando Todo
TTITLE6=Nostamgia
TTITLE7=A Cuba Volver
EXTD=
EXTT0=
EXTT1=
EXTT2=
EXTT3=
EXTT4=
EXTT5=
EXTT6=
EXTT7=
PLAYORDER=
